%TF.GenerationSoftware,KiCad,Pcbnew,7.0.10*%
%TF.CreationDate,2024-03-23T14:05:15-04:00*%
%TF.ProjectId,EHHT_v2,45484854-5f76-4322-9e6b-696361645f70,rev?*%
%TF.SameCoordinates,Original*%
%TF.FileFunction,Profile,NP*%
%FSLAX46Y46*%
G04 Gerber Fmt 4.6, Leading zero omitted, Abs format (unit mm)*
G04 Created by KiCad (PCBNEW 7.0.10) date 2024-03-23 14:05:15*
%MOMM*%
%LPD*%
G01*
G04 APERTURE LIST*
%TA.AperFunction,Profile*%
%ADD10C,0.150000*%
%TD*%
G04 APERTURE END LIST*
D10*
X119009741Y-94426717D02*
X119013024Y-94426139D01*
X119015909Y-94427805D01*
X119025652Y-94429523D01*
X119040579Y-94442048D01*
X119057453Y-94451791D01*
X119059767Y-94458149D01*
X119064952Y-94462500D01*
X119068336Y-94481691D01*
X119075000Y-94500000D01*
X119075000Y-116500000D01*
X119073282Y-116509741D01*
X119073861Y-116513024D01*
X119072194Y-116515909D01*
X119070477Y-116525652D01*
X119057951Y-116540579D01*
X119048209Y-116557453D01*
X119041850Y-116559767D01*
X119037500Y-116564952D01*
X119018308Y-116568336D01*
X119000000Y-116575000D01*
X108500000Y-116575000D01*
X108490258Y-116573282D01*
X108486976Y-116573861D01*
X108484090Y-116572194D01*
X108474348Y-116570477D01*
X108459420Y-116557951D01*
X108442547Y-116548209D01*
X108440232Y-116541850D01*
X108435048Y-116537500D01*
X108431663Y-116518308D01*
X108425000Y-116500000D01*
X108425000Y-114100000D01*
X89750000Y-114100000D01*
X89734937Y-114095106D01*
X89719098Y-114095106D01*
X89706284Y-114085796D01*
X89691221Y-114080902D01*
X89681911Y-114068088D01*
X89669098Y-114058779D01*
X89664203Y-114043715D01*
X89654894Y-114030902D01*
X89654894Y-114015062D01*
X89650000Y-114000000D01*
X89650000Y-97000000D01*
X89654894Y-96984937D01*
X89654894Y-96969098D01*
X89664203Y-96956284D01*
X89669098Y-96941221D01*
X89681911Y-96931911D01*
X89691221Y-96919098D01*
X89706284Y-96914203D01*
X89719098Y-96904894D01*
X89734937Y-96904894D01*
X89750000Y-96900000D01*
X108425000Y-96900000D01*
X108425000Y-94500000D01*
X108426717Y-94490258D01*
X108426139Y-94486976D01*
X108427805Y-94484090D01*
X108429523Y-94474348D01*
X108442048Y-94459420D01*
X108451791Y-94442547D01*
X108458149Y-94440232D01*
X108462500Y-94435048D01*
X108481691Y-94431663D01*
X108500000Y-94425000D01*
X119000000Y-94425000D01*
X119009741Y-94426717D01*
X118725000Y-111225000D02*
G75*
G03*
X108725000Y-111225000I-5000000J0D01*
G01*
X108725000Y-111225000D02*
G75*
G03*
X118725000Y-111225000I5000000J0D01*
G01*
M02*
