M48
; DRILL file {KiCad 7.0.10} date Sat Mar 23 14:05:15 2024
; FORMAT={-:-/ absolute / inch / decimal}
; #@! TF.CreationDate,2024-03-23T14:05:15-04:00
; #@! TF.GenerationSoftware,Kicad,Pcbnew,7.0.10
; #@! TF.FileFunction,Plated,1,2,PTH
FMAT,2
INCH
; #@! TA.AperFunction,Plated,PTH,ViaDrill
T1C0.0157
; #@! TA.AperFunction,Plated,PTH,ComponentDrill
T2C0.0197
; #@! TA.AperFunction,Plated,PTH,ComponentDrill
T3C0.0531
%
G90
G05
T1
X3.5787Y-4.2215
X3.6673Y-4.25
X3.7392Y-3.9813
X3.7726Y-4.2333
X3.8031Y-4.2864
X3.878Y-3.8583
X3.9144Y-4.3917
X4.0276Y-4.376
X4.0384Y-4.1348
X4.0392Y-4.2465
X4.0896Y-4.3002
X4.1378Y-4.3799
T2
X3.5915Y-4.437
X3.5955Y-3.875
X3.5955Y-3.9567
X3.5955Y-4.0404
X3.5955Y-4.123
X3.8524Y-4.438
X3.878Y-3.9094
X4.1142Y-4.2441
X4.2087Y-4.2441
X4.2087Y-4.3268
X4.2087Y-4.437
T3
X4.4587Y-3.8494
X4.4587Y-4.0494
M30
