%TF.GenerationSoftware,KiCad,Pcbnew,7.0.10*%
%TF.CreationDate,2024-03-23T14:05:15-04:00*%
%TF.ProjectId,EHHT_v2,45484854-5f76-4322-9e6b-696361645f70,rev?*%
%TF.SameCoordinates,Original*%
%TF.FileFunction,Paste,Top*%
%TF.FilePolarity,Positive*%
%FSLAX46Y46*%
G04 Gerber Fmt 4.6, Leading zero omitted, Abs format (unit mm)*
G04 Created by KiCad (PCBNEW 7.0.10) date 2024-03-23 14:05:15*
%MOMM*%
%LPD*%
G01*
G04 APERTURE LIST*
G04 Aperture macros list*
%AMRoundRect*
0 Rectangle with rounded corners*
0 $1 Rounding radius*
0 $2 $3 $4 $5 $6 $7 $8 $9 X,Y pos of 4 corners*
0 Add a 4 corners polygon primitive as box body*
4,1,4,$2,$3,$4,$5,$6,$7,$8,$9,$2,$3,0*
0 Add four circle primitives for the rounded corners*
1,1,$1+$1,$2,$3*
1,1,$1+$1,$4,$5*
1,1,$1+$1,$6,$7*
1,1,$1+$1,$8,$9*
0 Add four rect primitives between the rounded corners*
20,1,$1+$1,$2,$3,$4,$5,0*
20,1,$1+$1,$4,$5,$6,$7,0*
20,1,$1+$1,$6,$7,$8,$9,0*
20,1,$1+$1,$8,$9,$2,$3,0*%
G04 Aperture macros list end*
%ADD10RoundRect,0.225000X-0.250000X0.225000X-0.250000X-0.225000X0.250000X-0.225000X0.250000X0.225000X0*%
%ADD11R,1.250000X0.700000*%
%ADD12RoundRect,0.140000X0.170000X-0.140000X0.170000X0.140000X-0.170000X0.140000X-0.170000X-0.140000X0*%
%ADD13RoundRect,0.135000X0.185000X-0.135000X0.185000X0.135000X-0.185000X0.135000X-0.185000X-0.135000X0*%
%ADD14RoundRect,0.140000X-0.170000X0.140000X-0.170000X-0.140000X0.170000X-0.140000X0.170000X0.140000X0*%
%ADD15RoundRect,0.135000X-0.185000X0.135000X-0.185000X-0.135000X0.185000X-0.135000X0.185000X0.135000X0*%
%ADD16RoundRect,0.135000X-0.135000X-0.185000X0.135000X-0.185000X0.135000X0.185000X-0.135000X0.185000X0*%
%ADD17R,0.550000X0.550000*%
%ADD18R,1.100000X1.600000*%
%ADD19R,1.600000X1.600000*%
%ADD20RoundRect,0.112500X-0.187500X-0.112500X0.187500X-0.112500X0.187500X0.112500X-0.187500X0.112500X0*%
%ADD21R,0.900000X2.400000*%
%ADD22R,1.600000X1.100000*%
%ADD23R,1.100000X3.700000*%
%ADD24RoundRect,0.112500X0.112500X-0.187500X0.112500X0.187500X-0.112500X0.187500X-0.112500X-0.187500X0*%
G04 APERTURE END LIST*
%TO.C,U1*%
G36*
X98450107Y-104215108D02*
G01*
X97649892Y-104215108D01*
X97649892Y-103984890D01*
X98450107Y-103984890D01*
X98450107Y-104215108D01*
G37*
G36*
X98450107Y-104715107D02*
G01*
X97649892Y-104715107D01*
X97649892Y-104484892D01*
X98450107Y-104484892D01*
X98450107Y-104715107D01*
G37*
G36*
X98450107Y-105215106D02*
G01*
X97649892Y-105215106D01*
X97649892Y-104984891D01*
X98450107Y-104984891D01*
X98450107Y-105215106D01*
G37*
G36*
X98450107Y-105715108D02*
G01*
X97649892Y-105715108D01*
X97649892Y-105484890D01*
X98450107Y-105484890D01*
X98450107Y-105715108D01*
G37*
G36*
X98889918Y-103775107D02*
G01*
X98659702Y-103775107D01*
X98659702Y-102974892D01*
X98889918Y-102974892D01*
X98889918Y-103775107D01*
G37*
G36*
X98889918Y-106725106D02*
G01*
X98659702Y-106725106D01*
X98659702Y-105924891D01*
X98889918Y-105924891D01*
X98889918Y-106725106D01*
G37*
G36*
X99390044Y-103775107D02*
G01*
X99159828Y-103775107D01*
X99159828Y-102974892D01*
X99390044Y-102974892D01*
X99390044Y-103775107D01*
G37*
G36*
X99390044Y-106725106D02*
G01*
X99159828Y-106725106D01*
X99159828Y-105924891D01*
X99390044Y-105924891D01*
X99390044Y-106725106D01*
G37*
G36*
X99890170Y-103775107D02*
G01*
X99659954Y-103775107D01*
X99659954Y-102974892D01*
X99890170Y-102974892D01*
X99890170Y-103775107D01*
G37*
G36*
X99890170Y-106725106D02*
G01*
X99659954Y-106725106D01*
X99659954Y-105924891D01*
X99890170Y-105924891D01*
X99890170Y-106725106D01*
G37*
G36*
X100390296Y-103775107D02*
G01*
X100160080Y-103775107D01*
X100160080Y-102974892D01*
X100390296Y-102974892D01*
X100390296Y-103775107D01*
G37*
G36*
X100390296Y-106725106D02*
G01*
X100160080Y-106725106D01*
X100160080Y-105924891D01*
X100390296Y-105924891D01*
X100390296Y-106725106D01*
G37*
G36*
X101400106Y-104215108D02*
G01*
X100599891Y-104215108D01*
X100599891Y-103984890D01*
X101400106Y-103984890D01*
X101400106Y-104215108D01*
G37*
G36*
X101400106Y-104715107D02*
G01*
X100599891Y-104715107D01*
X100599891Y-104484892D01*
X101400106Y-104484892D01*
X101400106Y-104715107D01*
G37*
G36*
X101400106Y-105215106D02*
G01*
X100599891Y-105215106D01*
X100599891Y-104984891D01*
X101400106Y-104984891D01*
X101400106Y-105215106D01*
G37*
G36*
X101400106Y-105715108D02*
G01*
X100599891Y-105715108D01*
X100599891Y-105484890D01*
X101400106Y-105484890D01*
X101400106Y-105715108D01*
G37*
G36*
X99031299Y-104214878D02*
G01*
X98889878Y-104356299D01*
X98749929Y-104356299D01*
X98749929Y-104074929D01*
X99031299Y-104074929D01*
X99031299Y-104214878D01*
G37*
G36*
X99031299Y-105485120D02*
G01*
X99031299Y-105625069D01*
X98749929Y-105625069D01*
X98749929Y-105343699D01*
X98889878Y-105343699D01*
X99031299Y-105485120D01*
G37*
G36*
X100300069Y-104356299D02*
G01*
X100160120Y-104356299D01*
X100018699Y-104214878D01*
X100018699Y-104074929D01*
X100300069Y-104074929D01*
X100300069Y-104356299D01*
G37*
G36*
X100300069Y-105625069D02*
G01*
X100018699Y-105625069D01*
X100018699Y-105485120D01*
X100160120Y-105343699D01*
X100300069Y-105343699D01*
X100300069Y-105625069D01*
G37*
G36*
X99031299Y-104697720D02*
G01*
X99031299Y-105002278D01*
X98889878Y-105143699D01*
X98749929Y-105143699D01*
X98749929Y-104556299D01*
X98889878Y-104556299D01*
X99031299Y-104697720D01*
G37*
G36*
X99818699Y-104214878D02*
G01*
X99677278Y-104356299D01*
X99372720Y-104356299D01*
X99231299Y-104214878D01*
X99231299Y-104074929D01*
X99818699Y-104074929D01*
X99818699Y-104214878D01*
G37*
G36*
X99818699Y-105485120D02*
G01*
X99818699Y-105625069D01*
X99231299Y-105625069D01*
X99231299Y-105485120D01*
X99372720Y-105343699D01*
X99677278Y-105343699D01*
X99818699Y-105485120D01*
G37*
G36*
X100300069Y-105143699D02*
G01*
X100160120Y-105143699D01*
X100018699Y-105002278D01*
X100018699Y-104697720D01*
X100160120Y-104556299D01*
X100300069Y-104556299D01*
X100300069Y-105143699D01*
G37*
G36*
X99818699Y-104697720D02*
G01*
X99818699Y-105002278D01*
X99677278Y-105143699D01*
X99372720Y-105143699D01*
X99231299Y-105002278D01*
X99231299Y-104697720D01*
X99372720Y-104556299D01*
X99677278Y-104556299D01*
X99818699Y-104697720D01*
G37*
%TD*%
D10*
%TO.C,C_AC1*%
X94600000Y-104675000D03*
X94600000Y-106225000D03*
%TD*%
D11*
%TO.C,D3*%
X103983750Y-110250000D03*
X106483750Y-111200000D03*
X103983750Y-112150000D03*
%TD*%
D12*
%TO.C,CREF1*%
X98875000Y-110580000D03*
X98875000Y-109620000D03*
%TD*%
D13*
%TO.C,RUV2*%
X100775000Y-108660000D03*
X100775000Y-107640000D03*
%TD*%
D12*
%TO.C,CBYP1*%
X99100000Y-101980000D03*
X99100000Y-101020000D03*
%TD*%
D14*
%TO.C,CHVR1*%
X96650000Y-102570000D03*
X96650000Y-103530000D03*
%TD*%
D15*
%TO.C,ROC1*%
X97800000Y-109600000D03*
X97800000Y-110620000D03*
%TD*%
D16*
%TO.C,ROC12*%
X99575000Y-113225000D03*
X100595000Y-113225000D03*
%TD*%
D13*
%TO.C,ROK2*%
X102550000Y-109750000D03*
X102550000Y-108730000D03*
%TD*%
D12*
%TO.C,CSTOR1*%
X98000000Y-101980000D03*
X98000000Y-101020000D03*
%TD*%
D17*
%TO.C,S1*%
X105150000Y-101300000D03*
X105150000Y-98650000D03*
X105900000Y-101300000D03*
X105900000Y-98650000D03*
%TD*%
D18*
%TO.C,R1*%
X102800000Y-101350000D03*
D19*
X101650000Y-98450000D03*
D18*
X100500000Y-101350000D03*
%TD*%
D15*
%TO.C,ROK1*%
X102475000Y-105965000D03*
X102475000Y-106985000D03*
%TD*%
%TO.C,ROK4*%
X102400000Y-103080000D03*
X102400000Y-104100000D03*
%TD*%
D20*
%TO.C,D1*%
X93400000Y-103000000D03*
X95500000Y-103000000D03*
%TD*%
D15*
%TO.C,ROV2*%
X99700000Y-107590000D03*
X99700000Y-108610000D03*
%TD*%
D21*
%TO.C,KMB24F1*%
X93250000Y-112500000D03*
X95950000Y-112500000D03*
X95950000Y-105500000D03*
X93250000Y-105500000D03*
%TD*%
D15*
%TO.C,ROC2*%
X97800000Y-107580000D03*
X97800000Y-108600000D03*
%TD*%
D22*
%TO.C,R2*%
X107000000Y-103600000D03*
D19*
X104100000Y-104750000D03*
D22*
X107000000Y-105900000D03*
%TD*%
D23*
%TO.C,L1*%
X93400000Y-99700000D03*
X96400000Y-99700000D03*
%TD*%
D15*
%TO.C,RUV1*%
X101375000Y-109855000D03*
X101375000Y-110875000D03*
%TD*%
D24*
%TO.C,D2*%
X90900000Y-110500000D03*
X90900000Y-108400000D03*
%TD*%
D15*
%TO.C,ROV1*%
X99925000Y-109605000D03*
X99925000Y-110625000D03*
%TD*%
D16*
%TO.C,ROK3*%
X100840000Y-112175000D03*
X101860000Y-112175000D03*
%TD*%
M02*
